<svg width="24" height="24" viewBox="0 0 24 24" fill="none" xmlns="http://www.w3.org/2000/svg">
<g id="moon">
<g id="Group">
<path id="Vector" d="M12.9751 23.325C10.5001 23.325 8.06261 22.5375 6.07511 21C3.41261 18.975 1.80011 15.9 1.61261 12.525C1.38761 8.43752 3.56261 4.42502 7.08761 2.28752C9.11261 1.08752 11.3251 0.525018 13.6501 0.675018C14.1376 0.712518 14.5501 1.01252 14.7001 1.46252C14.8501 1.91252 14.7751 2.40002 14.4376 2.73752C12.4501 4.72502 11.6251 7.57502 12.2251 10.3125C13.1251 14.4 16.9501 17.175 21.1126 16.7625C21.6001 16.725 22.0501 16.95 22.2751 17.3625C22.5001 17.775 22.5001 18.2625 22.2001 18.6375C20.5501 20.8875 18.1501 22.4625 15.4126 23.0625C14.5876 23.25 13.7626 23.325 12.9751 23.325ZM12.4876 2.36252C10.9126 2.43752 9.37511 2.88752 7.95011 3.75002C4.95011 5.55002 3.11261 8.96252 3.30011 12.4125C3.45011 15.3 4.83761 17.925 7.08761 19.65C9.33761 21.375 12.2626 22.0125 15.0376 21.4125C17.0251 21 18.7876 19.95 20.1376 18.45C15.5626 18.4125 11.5501 15.1875 10.5376 10.65C9.90011 7.72502 10.6126 4.68752 12.4876 2.36252Z" fill="#111928"/>
</g>
</g>
</svg>
