<svg width="24" height="24" viewBox="0 0 24 24" fill="none" xmlns="http://www.w3.org/2000/svg">
<g id="sun" clip-path="url(#clip0_310_8608)">
<g id="Group">
<path id="Vector" d="M11.9999 6.8999C9.1874 6.8999 6.8999 9.1874 6.8999 11.9999C6.8999 14.8124 9.1874 17.0999 11.9999 17.0999C14.8124 17.0999 17.0999 14.8124 17.0999 11.9999C17.0999 9.1874 14.8124 6.8999 11.9999 6.8999ZM11.9999 15.4124C10.1249 15.4124 8.5874 13.8749 8.5874 11.9999C8.5874 10.1249 10.1249 8.5874 11.9999 8.5874C13.8749 8.5874 15.4124 10.1249 15.4124 11.9999C15.4124 13.8749 13.8749 15.4124 11.9999 15.4124Z" fill="#111928"/>
<path id="Vector_2" d="M12 4.23745C12.45 4.23745 12.8625 3.86245 12.8625 3.37495V1.49995C12.8625 1.04995 12.4875 0.637451 12 0.637451C11.55 0.637451 11.1375 1.01245 11.1375 1.49995V3.41245C11.175 3.86245 11.55 4.23745 12 4.23745Z" fill="#111928"/>
<path id="Vector_3" d="M12 19.7625C11.55 19.7625 11.1375 20.1375 11.1375 20.625V22.5C11.1375 22.95 11.5125 23.3625 12 23.3625C12.45 23.3625 12.8625 22.9875 12.8625 22.5V20.5875C12.8625 20.1375 12.45 19.7625 12 19.7625Z" fill="#111928"/>
<path id="Vector_4" d="M18.1124 6.74998C18.3374 6.74998 18.5624 6.67498 18.7124 6.48748L19.9124 5.28748C20.2499 4.94998 20.2499 4.42498 19.9124 4.08748C19.5749 3.74998 19.0499 3.74998 18.7124 4.08748L17.5124 5.28748C17.1749 5.62498 17.1749 6.14998 17.5124 6.48748C17.6624 6.67498 17.8874 6.74998 18.1124 6.74998Z" fill="#111928"/>
<path id="Vector_5" d="M5.32495 17.5124L4.12495 18.6749C3.78745 19.0124 3.78745 19.5374 4.12495 19.8749C4.27495 20.0249 4.49995 20.1374 4.72495 20.1374C4.94995 20.1374 5.17495 20.0624 5.32495 19.8749L6.52495 18.6749C6.86245 18.3374 6.86245 17.8124 6.52495 17.4749C6.18745 17.1749 5.62495 17.1749 5.32495 17.5124Z" fill="#111928"/>
<path id="Vector_6" d="M22.4999 11.1749H20.5874C20.1374 11.1749 19.7249 11.5499 19.7249 12.0374C19.7249 12.4874 20.0999 12.8999 20.5874 12.8999H22.4999C22.9499 12.8999 23.3624 12.5249 23.3624 12.0374C23.3624 11.5499 22.9499 11.1749 22.4999 11.1749Z" fill="#111928"/>
<path id="Vector_7" d="M4.23745 12C4.23745 11.55 3.86245 11.1375 3.37495 11.1375H1.49995C1.04995 11.1375 0.637451 11.5125 0.637451 12C0.637451 12.45 1.01245 12.8625 1.49995 12.8625H3.41245C3.86245 12.8625 4.23745 12.45 4.23745 12Z" fill="#111928"/>
<path id="Vector_8" d="M18.675 17.5124C18.3375 17.1749 17.8125 17.1749 17.475 17.5124C17.1375 17.8499 17.1375 18.3749 17.475 18.7124L18.675 19.9124C18.825 20.0624 19.0501 20.1749 19.2751 20.1749C19.5001 20.1749 19.725 20.0999 19.875 19.9124C20.2125 19.5749 20.2125 19.0499 19.875 18.7124L18.675 17.5124Z" fill="#111928"/>
<path id="Vector_9" d="M5.32495 4.12495C4.98745 3.78745 4.46245 3.78745 4.12495 4.12495C3.78745 4.46245 3.78745 4.98745 4.12495 5.32495L5.32495 6.52495C5.47495 6.67495 5.69995 6.78745 5.92495 6.78745C6.14995 6.78745 6.37495 6.71245 6.52495 6.52495C6.86245 6.18745 6.86245 5.66245 6.52495 5.32495L5.32495 4.12495Z" fill="#111928"/>
</g>
</g>
<defs>
<clipPath id="clip0_310_8608">
<rect width="24" height="24" fill="white"/>
</clipPath>
</defs>
</svg>
